<svg xmlns="http://www.w3.org/2000/svg" width="90" height="90" viewBox="0 0 90 90">
  <g>
    <circle cx="45" cy="45" r="45" fill="#fee4d2"/>
    <g>
      <path d="M45.0457,28.1745V40.93a1.1722,1.1722,0,0,1-1.1719,1.1718H29.9848A1.1722,1.1722,0,0,1,28.8129,40.93V28.1745a1.1716,1.1716,0,0,1,1.1712-1.1719h13.89a1.1715,1.1715,0,0,1,1.1719,1.1713Z" fill="#f58029"/>
      <path d="M33.7266,42.1025H46.6514a1.6022,1.6022,0,0,1,1.6023,1.6022h0a1.6023,1.6023,0,0,1-1.6023,1.6023H33.7266a1.6023,1.6023,0,0,1-1.6023-1.6023h0A1.6022,1.6022,0,0,1,33.7266,42.1025Z" fill="#fdd0b1"/>
      <path d="M46.6515,42.1025H43.1359a1.6023,1.6023,0,0,1,.0021,3.2045h3.5135a1.6023,1.6023,0,0,0,.0021-3.2045Z" fill="#fbb788"/>
      <path d="M41.2746,60.35a5.72,5.72,0,1,1-11.4409,0V58.6357l11.4409-.3533Z" fill="#fdd0b1"/>
      <path d="M39.5168,58.3367V60.35a5.7218,5.7218,0,0,1-4.8416,5.6532A5.7243,5.7243,0,0,0,41.2746,60.35V58.2824Z" fill="#fbb788"/>
      <path d="M33.35,60.35a2.2039,2.2039,0,1,0,4.4078.0029v-1.54H33.35Z" fill="#fff"/>
      <path d="M59.3878,59.403l-33.5521.4364c-1.9639-3.3732.9143-10.25,5.7894-13.0678a11.8874,11.8874,0,0,1,6.6469-1.4651h8.9818a7.3571,7.3571,0,0,0,.3636,8.8363,7.01,7.01,0,0,0,6.6778,2.1819c5.69-1.253,5.3346-7.8325,4.3935-12.2772-.0709-.3348-1.2774-4.1881-1.7822-5.6652l3.9707,1.1106q.9489,3.1731,2.061,6.498,1.1931,3.5565,2.4387,6.8639Z" fill="#f58029"/>
      <path d="M71.5453,56.4355a5.721,5.721,0,1,1-9.5563,5.7888" fill="#fdd0b1"/>
      <path d="M71.5453,56.4355l-1.18.7148a5.7184,5.7184,0,0,1-3.8325,8.8868,5.72,5.72,0,0,0,5.0125-9.6016Z" fill="#fbb788"/>
      <path d="M68.4643,58.451a2.2043,2.2043,0,1,1-3.2613,1.9673,2.2432,2.2432,0,0,1,3.2613-1.9673Z" fill="#fff"/>
      <path d="M25.8361,59.84c1.3454-6.23,7.1608-9.7449,11.89-8.5331,3.427.878,6.1312,4.1983,6.7621,8.2928Z" fill="#e05c26"/>
      <path d="M62.9393,53.3951l.3485-.2074a7.0291,7.0291,0,0,1,9.6349,2.446h0L60.4933,63.03h0a7.029,7.029,0,0,1,2.446-9.6348Z" fill="#e05c26"/>
      <path d="M45.0457,28.1745V38.4952a8.2019,8.2019,0,0,1-7.2984-11.4926h6.1265a1.1715,1.1715,0,0,1,1.1719,1.1713Z" fill="#e05c26"/>
      <circle cx="45.2603" cy="30.2941" r="6.4453" fill="#fbb788"/>
      <path d="M59.0293,34.3259h3.09a.4686.4686,0,0,1,.4687.4687v4.2295a.4687.4687,0,0,1-.4687.4688h-3.09a2.5835,2.5835,0,0,1-2.5835-2.5835h0a2.5836,2.5836,0,0,1,2.5835-2.5836Z" fill="#f58029"/>
      <path d="M62.119,34.3258H60.3612a.4688.4688,0,0,1,.4687.4688v4.2295a.4687.4687,0,0,1-.4687.4688H62.119a.4688.4688,0,0,0,.4687-.4688h0V34.7946A.4687.4687,0,0,0,62.119,34.3258Z" fill="#e05c26"/>
      <path d="M18.6294,36.5722h6.6679a.8789.8789,0,0,0,0-1.7578H18.6294a.8789.8789,0,1,0,0,1.7578Zm-1.7578,3.5157h8.4257a.879.879,0,0,0,0-1.7579H16.8716a.879.879,0,0,0,0,1.7579Zm3.5156-7.0313h4.91a.8789.8789,0,0,0,0-1.7578h-4.91a.8789.8789,0,0,0,0,1.7578ZM74.1211,65.2737h-2.282A6.5491,6.5491,0,0,0,73.9116,61.5,6.6337,6.6337,0,0,0,72.87,56.6879l.5022-.2988a.8788.8788,0,0,0,.3059-1.2046v0a7.9219,7.9219,0,0,0-7.9717-3.78c-.7488-1.783-1.5195-4.3228-2.2661-6.7845-.4355-1.4363-.8824-2.9095-1.33-4.2485h.4771a.8788.8788,0,0,0,.8789-.8788h0v-5.167a.8788.8788,0,0,0-.8788-.8789H59.0293A3.4684,3.4684,0,0,0,55.68,36.03H52.3174a.8789.8789,0,1,0,0,1.7578H55.68a3.4557,3.4557,0,0,0,.6984,1.3456.879.879,0,0,0,.0366.1518c.49,1.4329,1.3516,4.6517,1.4135,4.944.9614,4.54,1.096,10.1755-3.7227,11.2367a6.0926,6.0926,0,0,1-5.8268-1.9017,6.4619,6.4619,0,0,1-.2936-7.7714,2.479,2.479,0,0,0-1.3342-4.57h-.75a2.0407,2.0407,0,0,0,.0235-.2932V37.5876A7.3242,7.3242,0,1,0,39.244,26.1237H29.9848a2.0531,2.0531,0,0,0-2.0508,2.0507V40.93a2.0531,2.0531,0,0,0,2.0508,2.0508h1.3688a2.47,2.47,0,0,0,.7205,2.5692c-.3035.1412-.6005.2938-.8887.46a14.7963,14.7963,0,0,0-6.4917,8.6364,7.5,7.5,0,0,0,.36,5.5935l.0039.0072.0182.0338.01.0146q.0208.0342.0448.0663l.0137.0193a.8993.8993,0,0,0,.0667.0753l.02.0193q.0286.0271.06.0519l.0215.0167a.8871.8871,0,0,0,.0825.0548l.0031.002a.8728.8728,0,0,0,.0956.047l.02.0078c.0254.01.0513.0188.0779.0265l.03.0081.0281.0076c.0165.0035.033.0054.0495.008l.0277.0044a.8849.8849,0,0,0,.1091.0076l.0062,0h.004l3.116-.0405a6.5855,6.5855,0,0,0,2.203,4.5961H15.8789a.8789.8789,0,1,0,0,1.7578H74.1211a.8789.8789,0,1,0,0-1.7578ZM66.8719,53.0794A6.1631,6.1631,0,0,1,71.664,55.36l-.4213.2507a.8746.8746,0,0,0-.2741.1631l-10.1157,6.02A6.1594,6.1594,0,0,1,63.3887,54.15l.3485-.2074A6.1106,6.1106,0,0,1,66.8719,53.0794Zm1.8411,7.53a1.3249,1.3249,0,0,1-2.5919.0945l2.18-1.2971a1.3261,1.3261,0,0,1,.4121,1.2026Zm-11.3883-23.7a1.7066,1.7066,0,0,1,1.7046-1.7046h2.6795v3.4092H59.0293A1.7066,1.7066,0,0,1,57.3247,36.9093Zm-10.6732,6.072a.7232.7232,0,0,1,.009,1.4463H38.2977a14.3246,14.3246,0,0,0-1.6395,0H33.7265a.7234.7234,0,1,1-.0012-1.4467H46.6515ZM45.26,24.7268a5.5673,5.5673,0,1,1-5.5665,5.568v-.0007A5.5731,5.5731,0,0,1,45.26,24.7268ZM29.9848,41.2233a.2934.2934,0,0,1-.293-.293V28.1744a.2933.2933,0,0,1,.293-.2929h8.3614a7.3213,7.3213,0,0,0,5.8206,9.6556V40.93a.2933.2933,0,0,1-.293.293ZM26.3925,55.0986a12.9522,12.9522,0,0,1,5.6724-7.5661,10.53,10.53,0,0,1,4.6421-1.3467h9.0782a8.0979,8.0979,0,0,0,1.17,8.5352,7.8719,7.8719,0,0,0,7.5287,2.4619c4.8578-1.07,6.6563-5.7993,5.0643-13.3173-.06-.2828-.5189-2.01-.9638-3.5234a3.4786,3.4786,0,0,0,.4446.0295h1.2253c.501,1.4531,1.01,3.13,1.5034,4.7585.73,2.407,1.4827,4.8875,2.237,6.736a8.0026,8.0026,0,0,0-1.1566.5662L62.49,52.64a7.8562,7.8562,0,0,0-3.6209,4.85,8.0169,8.0169,0,0,0-.1909,1.0437l-13.4623.175c-.8877-4.0793-3.736-7.3475-7.2711-8.2534A9.8067,9.8067,0,0,0,30.44,51.7817a12.0341,12.0341,0,0,0-4.306,4.6734A9.2363,9.2363,0,0,1,26.3925,55.0986Zm.5949,3.8467a10.4476,10.4476,0,0,1,4.3768-5.6685,8.0463,8.0463,0,0,1,6.1442-1.119,8.7732,8.7732,0,0,1,5.9083,6.5739Zm9.8711,1.63a1.324,1.324,0,0,1-2.6036.0339Zm-1.3044,4.6167a4.8471,4.8471,0,0,1-4.831-4.5369l1.7616-.0229a3.0822,3.0822,0,0,0,6.1449-.08l1.7615-.0229A4.8465,4.8465,0,0,1,35.5541,65.1916Zm4.388.0821A6.5836,6.5836,0,0,0,42.15,60.5061l2.2859-.03a.8711.8711,0,0,0,.12-.0016L58.67,60.2912a7.883,7.883,0,0,0,1.068,3.1881.8789.8789,0,0,0,1.2047.306h0l.6066-.3609a6.5983,6.5983,0,0,0,1.4238,1.8494Zm30.2608-.9356a4.8416,4.8416,0,0,1-7.14-1.8147l1.52-.9047a3.0816,3.0816,0,1,0,5.2547-3.1269l1.5192-.904a4.84,4.84,0,0,1-1.1511,6.7478l-.0035.0025ZM45.26,31.173h2.5345a.8789.8789,0,1,0,0-1.7578H46.1393V26.9711a.879.879,0,0,0-1.7579,0v3.323A.879.879,0,0,0,45.26,31.173Z" fill="#010101"/>
    </g>
  </g>
</svg>
