<svg xmlns="http://www.w3.org/2000/svg" width="90" height="90" viewBox="0 0 90 90">
  <g>
    <circle cx="45" cy="45" r="45" fill="#e0d1e7"/>
    <path d="M22.0587,37.7558a4.2678,4.2678,0,1,0-5.2829,4.1324v4.065a1.0154,1.0154,0,0,0,1.0157,1.0156h6.3731a6.1567,6.1567,0,0,0,5.1,5.4156v6.9823H25.6224a4.2675,4.2675,0,1,0,.0006,2.0311H30.28a1.0154,1.0154,0,0,0,1.0157-1.0156V52.4753h3.6276V69.1a4.2679,4.2679,0,1,0,2.0311,0V52.4755h6.11v4.099a4.2678,4.2678,0,1,0,2.0312,0v-4.099H51.01v14.42a4.2694,4.2694,0,1,0,2.0312.0034V52.4755h5.1237v6.9527a1.0154,1.0154,0,0,0,1.0157,1.0156h3.8338a4.2673,4.2673,0,1,0-.0007-2.0311H60.1965V52.305A7.0985,7.0985,0,0,0,65.53,47.0989H72.211a1.0154,1.0154,0,0,0,1.0156-1.0156V41.8876a4.2673,4.2673,0,1,0-2.0312.0012v3.1788H65.7316a7.07,7.07,0,0,0-6.8056-6.7691,6.7707,6.7707,0,0,0-.8-4.8837V19.5312h3.45A4.2675,4.2675,0,1,0,61.5745,17.5H57.11a1.0154,1.0154,0,0,0-1.0156,1.0157V31.1788a6.9114,6.9114,0,0,0-6.8714-.7989,7.0907,7.0907,0,0,0-5.2011-4.8941V20.9012a4.2688,4.2688,0,1,0-2.0308-.0023v4.4052a7.1112,7.1112,0,0,0-6.6309,6.4,5.9885,5.9885,0,0,0-2.0918.2306V18.5155A1.0154,1.0154,0,0,0,32.2527,17.5H28.3034a4.268,4.268,0,1,0-.0006,2.0312h2.9343V32.9829A6.2284,6.2284,0,0,0,29.3179,40.24a6.1377,6.1377,0,0,0-5.0113,4.6972h-5.5v-3.05A4.266,4.266,0,0,0,22.0587,37.7558ZM21.4905,62.62a2.2365,2.2365,0,1,1,2.2357-2.2453l-.0016.0079.0017.0084A2.2391,2.2391,0,0,1,21.4905,62.62Zm45.6566-5.4292a2.2365,2.2365,0,1,1-2.2358,2.2436l.0013-.0062-.0014-.0069A2.2389,2.2389,0,0,1,67.1471,57.1907Zm2.8257-19.4349a2.2366,2.2366,0,1,1,2.2365,2.2365A2.2393,2.2393,0,0,1,69.9728,37.7558ZM65.7075,16.2779a2.2366,2.2366,0,1,1-2.2365,2.2365A2.2392,2.2392,0,0,1,65.7075,16.2779ZM26.4057,18.5315a2.2237,2.2237,0,1,1,0-.0326c0,.0058-.0033.0107-.0033.0167S26.4055,18.5258,26.4057,18.5315Zm11.77,54.7009a2.2365,2.2365,0,1,1-2.2365-2.2365A2.2392,2.2392,0,0,1,38.1759,73.2324Zm8.1409-12.5257a2.2365,2.2365,0,1,1-2.24-2.2363l.0033.0007.0032-.0007A2.2391,2.2391,0,0,1,46.3168,60.7067Zm1.0156-19.2811a1.0154,1.0154,0,0,0-1.0156,1.0156v8.0031H41.8437V42.4412a1.0154,1.0154,0,0,0-1.0156-1.0156h-.795L44.08,36.4784l4.0472,4.9472Zm6.9249,29.603a2.2365,2.2365,0,1,1-2.2365-2.2356A2.2392,2.2392,0,0,1,54.2573,71.0286ZM40.7735,16.7679A2.2365,2.2365,0,1,1,43.01,19.0043,2.2393,2.2393,0,0,1,40.7735,16.7679ZM30.2477,42.2012c.6738,0,1.3838.3522,1.822-.4254a1.0148,1.0148,0,0,0-.1378-1.1853,4.1351,4.1351,0,0,1,3-6.87c1.1422,0,1.53.4822,2.1379-.05a1.0153,1.0153,0,0,0,.3372-.8977,5.0415,5.0415,0,1,1,10.0551-.7429,1.0166,1.0166,0,0,0,1.6024.7638,5.0456,5.0456,0,0,1,7.4923,6.2257,1.0171,1.0171,0,0,0,.1309,1.0622c.5207.6458,1.043.246,2.0184.246a5.0589,5.0589,0,0,1-.0358,10.1176H48.3481V43.457H50.27a.0635.0635,0,0,1,.02,0,1.0154,1.0154,0,0,0,.661-1.7863L44.8663,34.232a1.05,1.05,0,0,0-1.5721,0l-6.19,7.5666a1.0151,1.0151,0,0,0,.786,1.6584h1.9221v6.9874H30.279a4.1215,4.1215,0,0,1-4.117-4.1171A4.1631,4.1631,0,0,1,30.2477,42.2012ZM17.791,39.9924a2.2365,2.2365,0,1,1,2.2365-2.2365A2.2392,2.2392,0,0,1,17.791,39.9924Z" fill="#231f20"/>
  </g>
</svg>
