<svg xmlns="http://www.w3.org/2000/svg" width="90" height="90" viewBox="0 0 90 90">
  <g>
    <circle cx="45" cy="45" r="45" fill="#f0d2e5"/>
    <path d="M66.92,25H62v2h4.94A3.08,3.08,0,0,1,70,30.08V55H68V30a1,1,0,0,0-1-1H63v2h3V55H24V31h3V29H23a1,1,0,0,0-1,1V55H20V30.08A3.08,3.08,0,0,1,23.08,27H28V25H23.1A5.09,5.09,0,0,0,18,30.08h0V59.92A5.09,5.09,0,0,0,23.08,65H40v6H36v2H54V71H50V65H66.92A5.09,5.09,0,0,0,72,59.92V30.08A5.09,5.09,0,0,0,66.92,25ZM48,71H42V65h6Zm18.92-8H23.08A3.08,3.08,0,0,1,20,59.92h0V57H70v2.92A3.08,3.08,0,0,1,66.92,63ZM41,59h8v2H41Zm4-10A16,16,0,1,0,29,33,16,16,0,0,0,45,49Zm0-30A14,14,0,1,1,31,33,14,14,0,0,1,45,19Zm0,26A12,12,0,1,0,33,33,12,12,0,0,0,45,45Zm0-22A10,10,0,1,1,35,33,10,10,0,0,1,45,23ZM44,38H41V36h6V34H42a1,1,0,0,1-1-1V29a1,1,0,0,1,1-1h2V26h2v2h3v2H43v2h5a1,1,0,0,1,1,1v4a1,1,0,0,1-1,1H46v2H44Z" fill="#231f20"/>
  </g>
</svg>
