<svg xmlns="http://www.w3.org/2000/svg" width="90" height="90" viewBox="0 0 90 90">
  <g>
    <circle cx="45" cy="45" r="45" fill="#d7ebcd"/>
    <g>
      <path d="M45,40.968a7.5868,7.5868,0,1,1,7.5867-7.5867A7.594,7.594,0,0,1,45,40.968ZM45,26.8a6.5914,6.5914,0,1,0,6.5914,6.5914A6.5884,6.5884,0,0,0,45,26.8Z" fill="#231f20" stroke="#231f20" stroke-miterlimit="10" stroke-width="0.5"/>
      <path d="M60.1328,56.1008H29.8773a.4985.4985,0,0,1-.4976-.4977,15.63,15.63,0,0,1,31.2609,0A.5141.5141,0,0,1,60.1328,56.1008ZM30.3852,55.0953h29.24a14.6285,14.6285,0,0,0-29.24,0Z" fill="#231f20" stroke="#231f20" stroke-miterlimit="10" stroke-width="0.5"/>
      <path d="M35.88,56.1008a.4986.4986,0,0,1-.4977-.4977V50.5047a.4977.4977,0,1,1,.9953,0v5.0984A.4985.4985,0,0,1,35.88,56.1008Zm18.2406,0a.4985.4985,0,0,1-.4976-.4977V50.5047a.4977.4977,0,1,1,.9953,0v5.0984A.4986.4986,0,0,1,54.12,56.1008ZM24.4742,44.6344a5.8754,5.8754,0,1,1,5.86-5.88A5.8906,5.8906,0,0,1,24.4742,44.6344Zm0-10.7453a4.875,4.875,0,1,0,4.875,4.875A4.8763,4.8763,0,0,0,24.4742,33.8891Z" fill="#231f20" stroke="#231f20" stroke-miterlimit="10" stroke-width="0.5"/>
      <path d="M29.8672,56.1008h-16.87a.4985.4985,0,0,1-.4977-.4977A11.9684,11.9684,0,0,1,32.7109,46.93a.5029.5029,0,1,1-.6906.7312,10.9636,10.9636,0,0,0-18.5047,7.4446H29.8672a.4984.4984,0,0,1,.4976.4976A.492.492,0,0,1,29.8672,56.1008Z" fill="#231f20" stroke="#231f20" stroke-miterlimit="10" stroke-width="0.5"/>
      <path d="M17.5578,56.1008a.4985.4985,0,0,1-.4976-.4977V51.7437a.4977.4977,0,0,1,.9953,0v3.8594A.4986.4986,0,0,1,17.5578,56.1008ZM65.5359,44.6344a5.87,5.87,0,1,1,5.87-5.87A5.8732,5.8732,0,0,1,65.5359,44.6344Zm0-10.7453a4.875,4.875,0,1,0,4.875,4.875A4.8763,4.8763,0,0,0,65.5359,33.8891Z" fill="#231f20" stroke="#231f20" stroke-miterlimit="10" stroke-width="0.5"/>
      <path d="M77.0023,56.1008h-16.87a.4977.4977,0,0,1,0-.9953H76.4844A10.985,10.985,0,0,0,65.5258,44.6344,10.8358,10.8358,0,0,0,57.98,47.6508a.5029.5029,0,1,1-.6906-.7313A11.9684,11.9684,0,0,1,77.5,55.593.5008.5008,0,0,1,77.0023,56.1008Z" fill="#231f20" stroke="#231f20" stroke-miterlimit="10" stroke-width="0.5"/>
      <path d="M72.4523,56.1008a.4985.4985,0,0,1-.4976-.4977V51.7437a.4977.4977,0,0,1,.9953,0v3.8594A.4985.4985,0,0,1,72.4523,56.1008ZM51.0328,58.843a.5157.5157,0,0,1-.3961-.193L45.67,52.1906a.5.5,0,1,1,.7922-.6093l4.9664,6.4593a.4918.4918,0,0,1-.0914.7008A.5749.5749,0,0,1,51.0328,58.843ZM63.2,60.9148a.4719.4719,0,0,1-.2336-.0609.5023.5023,0,0,1-.2031-.6805l5.4336-10.1461a.5022.5022,0,0,1,.8836.4774L63.6469,60.6508A.4968.4968,0,0,1,63.2,60.9148Zm-2.5289,1.168a.3476.3476,0,0,1-.1016-.01L53.6938,60.58a.5085.5085,0,0,1-.386-.5992.5033.5033,0,0,1,.5891-.386l6.8758,1.493a.5085.5085,0,0,1,.3859.5992A.499.499,0,0,1,60.6711,62.0828ZM33.4422,60.8437a.5245.5245,0,0,1-.3859-.1726.4888.4888,0,0,1,.0609-.7008l10.2273-8.714a.4974.4974,0,0,1,.64.7617L33.757,60.732A.4961.4961,0,0,1,33.4422,60.8437ZM31.0758,60.57a.4818.4818,0,0,1-.3961-.2031l-6.1039-8.1656a.5007.5007,0,1,1,.8023-.5992l6.1039,8.1656a.5011.5011,0,0,1-.1015.7008A.5212.5212,0,0,1,31.0758,60.57ZM18.5023,59.4219a.5682.5682,0,0,1-.2742-.0813.4966.4966,0,0,1-.1523-.6906l4.4789-6.9469a.5057.5057,0,0,1,.6906-.1523.4967.4967,0,0,1,.1524.6906l-4.4789,6.9469A.4849.4849,0,0,1,18.5023,59.4219Z" fill="#231f20" stroke="#231f20" stroke-miterlimit="10" stroke-width="0.5"/>
      <path d="M69.2734,53.1961a.5092.5092,0,0,1-.4875-.3758l-.5078-1.9094-1.8687.64a.5043.5043,0,1,1-.325-.9547l2.3765-.8125a.5344.5344,0,0,1,.3961.0305.4781.4781,0,0,1,.2438.3148l.64,2.4273a.5015.5015,0,0,1-.3554.6094A.1454.1454,0,0,1,69.2734,53.1961Zm-45.3375-.4469a2.2547,2.2547,0,1,1,2.2547-2.2547A2.2561,2.2561,0,0,1,23.9359,52.7492Zm0-3.4937a1.2492,1.2492,0,1,0,1.2493,1.2492A1.2483,1.2483,0,0,0,23.9359,49.2555ZM17.5578,62.6312a2.2547,2.2547,0,1,1,2.2547-2.2546A2.2561,2.2561,0,0,1,17.5578,62.6312Zm0-3.4937a1.2492,1.2492,0,1,0,1.2492,1.2492A1.2483,1.2483,0,0,0,17.5578,59.1375ZM45,52.7492a2.2547,2.2547,0,1,1,2.2547-2.2547A2.2561,2.2561,0,0,1,45,52.7492Zm0-3.4937a1.2492,1.2492,0,1,0,1.2492,1.2492A1.2483,1.2483,0,0,0,45,49.2555ZM32.1117,63.718a2.2547,2.2547,0,1,1,2.2547-2.2547A2.2562,2.2562,0,0,1,32.1117,63.718Zm0-3.5039a1.2492,1.2492,0,1,0,1.2492,1.2492A1.2483,1.2483,0,0,0,32.1117,60.2141Zm19.9774,1.757a2.2547,2.2547,0,1,1,2.2547-2.2547A2.2561,2.2561,0,0,1,52.0891,61.9711Zm0-3.5039a1.2492,1.2492,0,1,0,1.2492,1.2492A1.2483,1.2483,0,0,0,52.0891,58.4672Z" fill="#231f20" stroke="#231f20" stroke-miterlimit="10" stroke-width="0.5"/>
      <path d="M62.3773,64.2055a2.2547,2.2547,0,1,1,2.2547-2.2547A2.2561,2.2561,0,0,1,62.3773,64.2055Zm0-3.5039a1.2492,1.2492,0,1,0,1.2493,1.2492A1.2483,1.2483,0,0,0,62.3773,60.7016Z" fill="#231f20" stroke="#231f20" stroke-miterlimit="10" stroke-width="0.5"/>
    </g>
  </g>
</svg>
