<svg xmlns="http://www.w3.org/2000/svg" width="90" height="90" viewBox="0 0 90 90">
  <g>
    <circle cx="45" cy="45" r="45" fill="#fee4d2"/>
    <path d="M48.9989,35.8279h7.9979a.9521.9521,0,1,0,0-1.9042H48.9989a.9521.9521,0,1,0,0,1.9042ZM45,18.4045a.9521.9521,0,1,0-.9521-.9521A.9521.9521,0,0,0,45,18.4045Zm.0162,30.8718-5.1707,5.1708L38.23,52.8313a.9521.9521,0,0,0-1.3465,1.3465l2.289,2.2891a.9522.9522,0,0,0,1.3465,0h0l5.844-5.8441a.9521.9521,0,0,0-1.3465-1.3465Zm3.9827-9.64h7.9979a.9521.9521,0,1,0,0-1.9042H48.9989a.9521.9521,0,0,0,0,1.9042Zm0,17.1384h7.9979a.9522.9522,0,1,0,0-1.9043H48.9989a.9522.9522,0,0,0,0,1.9043ZM33.0032,59.7269h8.7485a.9521.9521,0,1,0,0-1.9042H33.9553V50.0141h7.7964a.9522.9522,0,1,0,0-1.9043H33.0032a.9522.9522,0,0,0-.9522.9522v9.7128A.9522.9522,0,0,0,33.0032,59.7269Zm15.9957-6.7606h7.9979a.9522.9522,0,1,0,0-1.9043H48.9989a.9522.9522,0,0,0,0,1.9043ZM33.0032,42.5886h8.7485a.9522.9522,0,1,0,0-1.9043H33.9553V32.8758h7.7964a.9522.9522,0,1,0,0-1.9043H33.0032a.9522.9522,0,0,0-.9522.9521v9.7129A.9522.9522,0,0,0,33.0032,42.5886ZM63.9791,18.0871H54.42a2.3257,2.3257,0,0,0-2.2412-1.72H50.1928a.3989.3989,0,0,1-.3708-.2986,5.0425,5.0425,0,0,0-9.644,0,.3989.3989,0,0,1-.3708.2986H37.8213a2.3257,2.3257,0,0,0-2.2412,1.72H26.0209A4.7662,4.7662,0,0,0,21.26,22.8478V72.7394A4.766,4.766,0,0,0,26.0209,77.5H63.9791A4.766,4.766,0,0,0,68.74,72.7394V22.8478A4.7662,4.7662,0,0,0,63.9791,18.0871ZM37.402,18.691a.42.42,0,0,1,.4193-.4193h1.9859a2.2919,2.2919,0,0,0,2.1922-1.6468,3.1381,3.1381,0,0,1,6.0012,0,2.2919,2.2919,0,0,0,2.1922,1.6468h1.9859a.42.42,0,0,1,.4193.4193v5.5252a.42.42,0,0,1-.4193.4193H37.8213a.42.42,0,0,1-.4193-.4193Zm-1.74,6.3784a2.3256,2.3256,0,0,0,2.1591,1.47H52.1787a2.3259,2.3259,0,0,0,2.1592-1.47h5.8327a1.5887,1.5887,0,0,1,1.5869,1.5869V62.9007H56.3621A2.2242,2.2242,0,0,0,54.14,65.1223v5.3954H29.8294a1.5886,1.5886,0,0,1-1.5869-1.5868V26.6563a1.5887,1.5887,0,0,1,1.5869-1.5869ZM60.411,64.805l-4.3663,4.3662V65.1223a.3177.3177,0,0,1,.3174-.3173Zm6.4245,7.9344a2.86,2.86,0,0,1-2.8564,2.8564H26.0209a2.86,2.86,0,0,1-2.8564-2.8564V22.8478a2.86,2.86,0,0,1,2.8564-2.8564h9.4768v3.1738H29.8294a3.4949,3.4949,0,0,0-3.4911,3.4911V68.9309a3.495,3.495,0,0,0,3.4911,3.4911H55.0926a.9384.9384,0,0,0,.095-.0048c.0231-.0023.0456-.0063.0682-.01l.0242-.0037c.0267-.0053.0528-.0122.0786-.02l.0115-.003c.0263-.008.0519-.0175.0772-.0276l.01-.0038c.0239-.01.0471-.0213.07-.0331l.0142-.0069c.0211-.0113.0414-.024.0616-.0369l.0184-.0111c.0192-.0129.0375-.027.0556-.0412l.0192-.0144q.0361-.03.0692-.0626l7.6167-7.6168a.9114.9114,0,0,0,.0626-.0691l.0144-.0192c.0142-.0182.0283-.0364.0412-.0556l.0112-.0184c.0129-.02.0255-.04.0369-.0617l.0068-.0142c.0118-.0229.0232-.0461.0331-.07l.0038-.01c.01-.0253.02-.0509.0276-.0772l.003-.0115c.0075-.0259.0144-.0519.02-.0786l.0037-.0243c.0039-.0225.0078-.0451.01-.0681a.9389.9389,0,0,0,.0048-.0951V26.6563a3.495,3.495,0,0,0-3.4911-3.4911H54.5023V19.9914h9.4768a2.86,2.86,0,0,1,2.8564,2.8564ZM38.23,35.693A.9521.9521,0,0,0,36.8832,37.04l2.289,2.2891a.9522.9522,0,0,0,1.3465,0h0l5.844-5.8441a.9521.9521,0,0,0-1.3465-1.3465l-5.1707,5.1708Z" fill="#231f20"/>
  </g>
</svg>
