<svg xmlns="http://www.w3.org/2000/svg" width="90" height="90" viewBox="0 0 90 90">
  <g>
    <circle cx="45" cy="45" r="45" fill="#fbd2d3"/>
    <g>
      <path d="M38.6044,19.4176H19.4176V38.6044H38.6044Zm-3.1978,15.989H22.6154V22.6154H35.4066Z" fill="#231f20"/>
      <path d="M25.8132,25.8132h6.3956v6.3956H25.8132ZM19.4176,70.5824H38.6044V51.3956H19.4176Zm3.1978-15.989H35.4066V67.3846H22.6154Z" fill="#231f20"/>
      <path d="M25.8132,57.7912h6.3956v6.3956H25.8132ZM51.3956,19.4176V38.6044H70.5824V19.4176Zm15.989,15.989H54.5934V22.6154H67.3846Z" fill="#231f20"/>
      <path d="M57.7912,25.8132h6.3956v6.3956H57.7912Zm-31.978,15.989H19.4176v6.3956H29.011V45H25.8132Zm15.989,6.3956h6.3956v6.3956H41.8022ZM29.011,41.8022h6.3956V45H29.011Zm19.1868,15.989H41.8022V60.989H45v3.1978h3.1978V57.7912Zm-9.5934-15.989V45H35.4066v3.1978h6.3956V41.8022ZM45,32.2088h3.1978v6.3956H45ZM48.1978,45v3.1978h6.3956V41.8022H45V45Zm-6.3956-6.3956H45v3.1978H41.8022Zm6.3956,25.5824h6.3956v6.3956H48.1978Zm-6.3956,0H45v6.3956H41.8022Zm6.3956-9.5934h3.1978v3.1978H48.1978Zm0-25.5824V22.6154H45V19.4176H41.8022V32.2088H45V29.011Zm9.5934,35.1758H60.989v6.3956H57.7912Zm0-6.3956h6.3956V60.989H57.7912ZM54.5934,60.989h3.1978v3.1978H54.5934Zm-3.1978-3.1978h3.1978V60.989H51.3956Zm12.7912-6.3956v3.1978h3.1978v3.1978h3.1978V51.3956H64.1868Zm3.1978,9.5934H64.1868v9.5934h6.3956V64.1868H67.3846Zm-15.989-9.5934v3.1978H60.989V48.1978H54.5934v3.1978Zm6.3956-9.5934V45h6.3956v3.1978h6.3956V41.8022H57.7912Z" fill="#231f20"/>
    </g>
  </g>
</svg>
