<svg xmlns="http://www.w3.org/2000/svg" width="90" height="90" viewBox="0 0 90 90">
  <g>
    <circle cx="45" cy="45" r="45" fill="#d4e0f2"/>
    <g>
      <path d="M34.5819,73.3187c-.35-.0984-.7022-.19-1.0495-.2966a6.7,6.7,0,0,1-2.7741-1.7486q-5.9983-6.0071-12.0011-12.01a6.3767,6.3767,0,0,1-.045-9.3251c1.3044-1.3257,2.6271-2.6334,3.9016-3.9092l6.805,6.8011c-.9508.9389-1.9129,1.925-2.9146,2.869-1.2148,1.1447-1.2118,1.4691-.0083,2.6024.7914.7452,1.5448,1.5309,2.3166,2.2971a.7176.7176,0,0,0,.1483.072c.0732-.2077.15-.408.2148-.6122a6.5082,6.5082,0,0,1,5.5226-4.7634c1.8658-.3139,3.7245-.67,5.75-1.0371-.1628-.2553-.2372-.503-.4028-.6117a9.2146,9.2146,0,0,1-4.0378-5.6588.68.68,0,0,0-.3752-.3887,3.67,3.67,0,0,1-2.595-3.753c-.0009-2.1571-.0115-4.3143.0043-6.4713a11.877,11.877,0,0,1,23.7488.356c.0289,3.5765.0153,7.1534.0113,10.73a2.7229,2.7229,0,0,1-2.9422,2.9236A2.68,2.68,0,0,0,51.25,52.4417a8.258,8.258,0,0,1-1.4421,1.1869,3.4449,3.4449,0,0,0-.44.62c2.0089.3678,3.8463.7332,5.694,1.0357a6.5013,6.5013,0,0,1,5.5451,4.6606c.6026,1.833,1.2234,3.66,1.8332,5.4908.0566.17.0923.347.1493.5648H43.03L44.5747,67.25c-1.1056,1.0173-2.0344,1.873-2.9646,2.7273-.543.4988-1.0959.9871-1.6307,1.4945a6.3484,6.3484,0,0,1-3.4886,1.7642c-.0494.0074-.093.054-.1393.0823Zm20.43-32.4139a35.5981,35.5981,0,0,0-.2473-4.96,9.5233,9.5233,0,0,0-7.1523-7.89,9.6183,9.6183,0,0,0-10.2217,3.0114c-2.588,2.79-2.7022,6.2269-2.44,9.7843l.8116-.3194L35.81,39.49a10.9688,10.9688,0,0,0,5.0565-.8771,13.1729,13.1729,0,0,0,4.07-3.1665,10.4932,10.4932,0,0,0,9.1077,4.0382v1.0407Zm5.1088,23.2529c-.6114-1.6608-1.1-3.2813-1.8033-4.8026a3.8117,3.8117,0,0,0-2.8415-2.0885c-1.9822-.3933-3.9791-.7137-5.9582-1.1211a1.0876,1.0876,0,0,0-1.1415.3869c-1.1263,1.1626-2.2837,2.295-3.4536,3.4633-.1591-.15-.294-.2716-.4223-.4-1.0693-1.0672-2.1424-2.1307-3.2021-3.2074a.78.78,0,0,0-.8114-.2687c-1.9111.3753-3.8326.6973-5.7486,1.0482A4.5424,4.5424,0,0,0,31.05,60.2772a15.9978,15.9978,0,0,0-.5108,1.5712.7831.7831,0,0,0,.1482.6134c.4389.4957.9259.9488,1.3949,1.4177.76.7595,1.1052.763,1.9006.0408,1.209-1.0978,2.4231-2.19,3.6593-3.3064,1.0582,1.06,2.0953,2.079,3.1069,3.123a1.2716,1.2716,0,0,0,1.0044.43q8.8149-.0213,17.63-.01ZM37.617,41.3312c0,1.51-.0077,2.9282.0042,4.3465a8.196,8.196,0,0,0,.0961,1.432,7.2589,7.2589,0,0,0,8.5254,5.9664,5.78,5.78,0,0,0,3.2806-1.6886H44.9358V49.5462h5.2388c1.1586,0,1.1681.0034,1.5733-1.1206.834-2.3134.27-4.7065.4779-7.0985a12.0776,12.0776,0,0,1-7.316-3.2437A12.0706,12.0706,0,0,1,37.617,41.3312Zm-17.2589,9.582c-2.3439,2.1668-2.412,4.9347-.184,7.1637q5.9195,5.922,11.8433,11.8394a6.8381,6.8381,0,0,0,.83.7262,4.55,4.55,0,0,0,6.2074-.9l-4.1365-4.1562c-1.334.98-2.6808,1.0154-3.7545-.0373-2.2493-2.2053-4.4656-4.4444-6.6839-6.681a2.245,2.245,0,0,1-.71-1.958,13.68,13.68,0,0,1,.6186-1.9562ZM36.4766,64.156l4.1572,4.21.9786-.9023-4.14-4.2045ZM21.7815,49.5186l4.1242,4.1241.81-.8443L22.628,48.6651Zm25.5647,5.2742a21.8773,21.8773,0,0,1-2.4268.2447,21.7132,21.7132,0,0,1-2.4161-.2393l2.4192,2.42Zm6.0248-5.2977c1.4963.2617,1.7618-.4147,1.4834-2.2068-.3463.18-.8264.2692-.9744.54A7.9808,7.9808,0,0,0,53.371,49.4951ZM35.757,42.549a1.75,1.75,0,0,0-.8561,1.6916,1.5736,1.5736,0,0,0,.8561,1.3415Zm18.2885.0586v2.9666A1.6924,1.6924,0,0,0,54.0455,42.6076Z" fill="#231f20"/>
      <path d="M73.2921,26.857c-.0555.2116-.1061.4247-.1673.6348a2.7953,2.7953,0,0,1-2.5768,1.9955,1.6466,1.6466,0,0,1-.3314.0016,5.6476,5.6476,0,0,0-4.1544,1.179c-2.0658,1.4106-4.2289,2.6788-6.3521,4.0052-.137.0856-.2845.1543-.5147.2778l.9247-5.46c-.7448,0-1.46.0023-2.1754,0a2.8,2.8,0,0,1-3.0009-3.0065q-.0044-3.4292,0-6.8583a2.751,2.751,0,0,1,2.9287-2.9436q6.138-.0023,12.2759-.0005a2.73,2.73,0,0,1,3.0675,2.45,1.6709,1.6709,0,0,0,.0758.2027ZM61.71,31.2391c1.2363-.772,2.4288-1.4024,3.49-2.2066a6.36,6.36,0,0,1,4.9167-1.3993,1.58,1.58,0,0,0,.276.0008.9165.9165,0,0,0,1-.947q.0276-3.62-.001-7.24a.8573.8573,0,0,0-.96-.91q-6.327-.01-12.6541,0a.8554.8554,0,0,0-.97.9451q-.013,3.5925,0,7.185a.8984.8984,0,0,0,1.0214.9649c1.2893.0086,2.5787.0027,3.868.0028h.6129Z" fill="#231f20"/>
      <path d="M19.938,42.6117l-3.215-5.359L18.296,36.3l1.69,2.7956C22.4645,30.16,27.893,23.9567,36.5936,20.824a24.9648,24.9648,0,0,1,15.9051-.2766c-.1742.5716-.3272,1.0783-.4848,1.5835a.5654.5654,0,0,1-.09.1339c-7.8948-2.1258-15.1785-.9287-21.6861,4.1062a22.3316,22.3316,0,0,0-8.2036,12.828l2.32-1.3845.9468,1.5746Z" fill="#231f20"/>
      <path d="M72.7948,36.9016l-.95,1.5772-2.613-1.5548c2.6166,8.8251,1.1283,16.8388-4.4,24.2024-.2772-.214-.5053-.3854-.7281-.5634-.23-.1833-.4542-.3731-.7413-.61a23.8755,23.8755,0,0,0,4.9094-10.7647,23.546,23.546,0,0,0-.8867-11.8277l-1.5891,2.6242-1.5821-.9325,3.2153-5.3671Z" fill="#231f20"/>
      <path d="M69.5594,20.3659v1.7787H58.6341V20.3659Z" fill="#231f20"/>
      <path d="M58.6274,25.8042V24.0133h7.2672v1.7909Z" fill="#231f20"/>
      <path d="M69.5392,25.8213h-1.742V24.0124h1.742Z" fill="#231f20"/>
    </g>
  </g>
</svg>
