<svg xmlns="http://www.w3.org/2000/svg" width="50" height="50" viewBox="0 0 50 50">
  <g>
    <g>
      <ellipse cx="25" cy="8.7411" rx="4.9107" ry="5.1071" fill="#f58029"/>
      <path d="M28,14.6339H22a6.0179,6.0179,0,0,0-6.2679,5.75v7.7679a4.4465,4.4465,0,0,0,2.9822,4.1607V42.67A3.5715,3.5715,0,0,0,22,46.3661h6A3.5715,3.5715,0,0,0,31.2857,42.67V32.3125a4.4465,4.4465,0,0,0,2.9822-4.125V20.3839A6.0179,6.0179,0,0,0,28,14.6339Zm-20.8571.6429A2.9821,2.9821,0,1,0,4.27,12.1894q-.0019.0527-.0019.1052a2.9285,2.9285,0,0,0,2.874,2.9822Zm2.1428,1.4286H5a4.7856,4.7856,0,0,0-5,4.5178V26.58a3.5715,3.5715,0,0,0,2.6786,3.4107v6.8035A2.9463,2.9463,0,0,0,5.3571,39.92H9.0893a2.9464,2.9464,0,0,0,2.7157-3.16l-.0014-.0182V29.8839a3.5713,3.5713,0,0,0,2.4821-3.3571V21.17A4.7856,4.7856,0,0,0,9.2857,16.7054Zm33.5714-1.4286a2.9821,2.9821,0,1,0-2.873-3.0874c-.0013.0351-.0019.07-.002.1052a2.9287,2.9287,0,0,0,2.8741,2.9822ZM45,16.7054H40.7143a4.7856,4.7856,0,0,0-5,4.5178V26.58a3.5715,3.5715,0,0,0,2.6786,3.4107v6.8035a2.9463,2.9463,0,0,0,2.6785,3.125h3.6965a2.9464,2.9464,0,0,0,2.7157-3.16l-.0015-.0182V29.8839A3.5713,3.5713,0,0,0,50,26.5268V21.17A4.7856,4.7856,0,0,0,45,16.7054Z" fill="#f58029"/>
    </g>
    <rect width="50" height="50" fill="none"/>
  </g>
</svg>
