<svg xmlns="http://www.w3.org/2000/svg" width="50" height="50" viewBox="0 0 50 50">
  <g>
    <g>
      <rect y="41.6667" width="15" height="8.3333" fill="#f58029"/>
      <rect x="17.5" y="34.1667" width="15" height="15.8333" fill="#f58029"/>
      <rect x="35" y="26.6667" width="15" height="23.3333" fill="#f58029"/>
      <path d="M41.6667,7.5l2.5-6.6667-7.5.8334,1.7441,2.0341A96.2358,96.2358,0,0,1,25.625,9.2142,95.8222,95.8222,0,0,1,1.6667,14.1717l.1266,1.6616A97.5268,97.5268,0,0,0,26.1692,10.79,97.8889,97.8889,0,0,0,39.525,5.0025Z" fill="#f58029"/>
      <polygon points="2.5 6.667 4.167 6.667 4.167 4.167 6.667 4.167 6.667 2.5 4.167 2.5 4.167 0 2.5 0 2.5 2.5 0 2.5 0 4.167 2.5 4.167 2.5 6.667" fill="#f58029"/>
      <path d="M.8333,30.8333v8.3334A.8337.8337,0,0,0,1.6667,40H13.3333a.8337.8337,0,0,0,.8334-.8333V30.8333a4.1618,4.1618,0,0,0-3.1009-4.0108,4.7983,4.7983,0,0,0,1.3767-2.8083,3.49,3.49,0,0,0,.0575-.6809,5,5,0,0,0-10,0,3.1616,3.1616,0,0,0,.0475.6142A4.916,4.916,0,0,0,3.9417,26.82,4.1622,4.1622,0,0,0,.8333,30.8333ZM7.5,36.6667l-1.6667-2.5,1.4284-5.8334h.4758l1.4292,5.8334ZM4.21,22.9092a4.977,4.977,0,0,1,6.58,0,3.2406,3.2406,0,0,1,.0433.4241,2.0809,2.0809,0,0,1-.0358.4192,3.3246,3.3246,0,0,1-6.6058-.0658,1.8349,1.8349,0,0,1-.025-.3534A3.2406,3.2406,0,0,1,4.21,22.9092ZM32.5,25A7.5,7.5,0,1,0,25,32.5,7.5,7.5,0,0,0,32.5,25Zm-10,1.6667h1.6667A.8333.8333,0,1,0,25,25.8333a2.4939,2.4939,0,0,1-.8333-4.8466V20h1.6666v.9867A2.4965,2.4965,0,0,1,27.5,23.3333H25.8333A.8333.8333,0,1,0,25,24.1667a2.4939,2.4939,0,0,1,.8333,4.8466V30H24.1667v-.9867A2.4965,2.4965,0,0,1,22.5,26.6667Zm20-17.5a7.5,7.5,0,1,0,7.5,7.5A7.5,7.5,0,0,0,42.5,9.1667Zm0,6.6666a2.494,2.494,0,0,1,.8333,4.8467v.9867H41.6667V20.68A2.4967,2.4967,0,0,1,40,18.3333h1.6667A.8333.8333,0,1,0,42.5,17.5a2.494,2.494,0,0,1-.8333-4.8467v-.9866h1.6666v.9866A2.4967,2.4967,0,0,1,45,15H43.3333a.8333.8333,0,1,0-.8333.8333Z" fill="#f58029"/>
    </g>
    <rect width="50" height="50" fill="none"/>
  </g>
</svg>
