<svg xmlns="http://www.w3.org/2000/svg" width="90" height="90" viewBox="0 0 90 90">
  <g>
    <circle cx="45" cy="45" r="45" fill="#fee4d2"/>
    <g>
      <path d="M66.1072,20.6255V50.628A12.6573,12.6573,0,0,0,45.9493,63.7541H22.9786a3.75,3.75,0,0,1-3.75-3.75V20.6255a3.75,3.75,0,0,1,3.75-3.75h11.72V39.377H50.6372V16.8752h11.72A3.75,3.75,0,0,1,66.1072,20.6255Z" fill="#f58029"/>
      <rect x="34.6983" y="16.8752" width="15.9388" height="22.5019" fill="#e05c26"/>
      <path d="M70.7951,60.4725a12.6573,12.6573,0,1,1-4.6879-9.8445A12.6574,12.6574,0,0,1,70.7951,60.4725Z" fill="#fbb788"/>
      <path d="M62.3569,15H22.9786a5.6255,5.6255,0,0,0-5.6254,5.6255V60.0037a5.6255,5.6255,0,0,0,5.6254,5.6255H44.5429A14.5231,14.5231,0,1,0,67.9823,49.8123V20.6255A5.6255,5.6255,0,0,0,62.3569,15ZM36.5735,18.75H48.762V37.5019H36.5735ZM43.68,61.8789H22.9786a1.8751,1.8751,0,0,1-1.8751-1.8752V20.6255A1.8752,1.8752,0,0,1,22.9786,18.75h9.8446V39.377a1.8751,1.8751,0,0,0,1.8751,1.8752H50.6372a1.8751,1.8751,0,0,0,1.8751-1.8752V18.75h9.8446a1.8752,1.8752,0,0,1,1.8751,1.8752V47.3A14.495,14.495,0,0,0,43.6053,60.4257,13.8594,13.8594,0,0,0,43.68,61.8789Zm25.24-1.4064A10.7822,10.7822,0,1,1,58.1378,49.69,10.7822,10.7822,0,0,1,68.92,60.4725Z" fill="#010101"/>
      <path d="M56.0564,62.9759l-5.7-5.7005-2.6534,2.644,7.0319,7.0318a1.8673,1.8673,0,0,0,2.6533,0L67.7011,56.6378l-2.6534-2.6439Z" fill="#010101"/>
      <rect x="23.9162" y="55.3159" width="3.7503" height="3.7503" fill="#010101"/>
      <rect x="29.5417" y="55.3159" width="3.7503" height="3.7503" fill="#010101"/>
    </g>
  </g>
</svg>
