<svg xmlns="http://www.w3.org/2000/svg" width="90" height="90" viewBox="0 0 90 90">
  <g>
    <circle cx="45" cy="45" r="45" fill="#fee4d2"/>
    <g>
      <path d="M60,20V44.999H45.0005V16H56A4,4,0,0,1,60,20Z" fill="#f58029"/>
      <path d="M29.9792,45V20.0012a4,4,0,0,1,4-4H45V45Z" fill="#f58029"/>
      <path d="M36,42a2,2,0,0,1-2-2V17.0014a3.9809,3.9809,0,0,1,.141-1H34a4,4,0,0,0-4,4V45H44.9765V42Zm14.9993,0a2,2,0,0,1-2-2V16.0014H45V45H59.9758V42Z" fill="#e05c26"/>
      <path d="M25.0005,45h39.998a4,4,0,0,1-4,4H29a4,4,0,0,1-4-4Z" fill="#fdd0b1"/>
      <path d="M64.4435,47H31a3.9817,3.9817,0,0,1-3.4448-2H25.0005a4,4,0,0,0,4,4H60.9987A3.9817,3.9817,0,0,0,64.4435,47Z" fill="#fbb788"/>
      <path d="M42,40h3v5H40V42A2,2,0,0,1,42,40Zm3,0h3a2,2,0,0,1,2,2v3H45V40Z" fill="#f58029"/>
      <path d="M44,44a3,3,0,0,1-3-3h0a1.99,1.99,0,0,1,.18-.82A2,2,0,0,0,40,42v3h5V44Zm6,0a4,4,0,0,1-4-4H45v5h5Z" fill="#e05c26"/>
      <path d="M71.9982,35.0005a2,2,0,0,0-2,2v19.999H58.9988a2,2,0,0,0,0,4H69.9983a4,4,0,0,0,4-4h0V37A2,2,0,0,0,71.9982,35.0005Z" fill="#fdd0b1"/>
      <path d="M72.8181,35.1805a1.99,1.99,0,0,1,.18.82v19.999a4,4,0,0,1-4,4H57.9989a1.99,1.99,0,0,1-.82-.18,2,2,0,0,0,1.82,1.18H69.9983a4,4,0,0,0,4-4V37A2,2,0,0,0,72.8181,35.1805Z" fill="#555b6e"/>
      <path d="M46.9994,68.4278V53h2a2,2,0,0,0,2-2V49H39v2a2,2,0,0,0,2,2h2V68.4278l-3.3728,2.4089A3.8849,3.8849,0,0,0,38,73.9986H51.9992a3.8849,3.8849,0,0,0-1.627-3.1619Z" fill="#fdd0b1"/>
      <path d="M41,51V49H39v2a2,2,0,0,0,2,2h2A2,2,0,0,1,41,51Zm.627,19.837L45,68.4278V53H43V68.4278l-3.3728,2.4089A3.8849,3.8849,0,0,0,38,73.9986h2A3.8849,3.8849,0,0,1,41.6267,70.8367Z" fill="#fbb788"/>
      <path d="M18.0008,35.0005a2,2,0,0,1,2,2v19.999H31a2,2,0,1,1,0,4h-11a4,4,0,0,1-4-4h0V37A2,2,0,0,1,18.0008,35.0005Z" fill="#636a7c"/>
      <path d="M18.0008,35.0005a2,2,0,0,1,2,2v19.999H31a2,2,0,1,1,0,4h-11a4,4,0,0,1-4-4h0V37A2,2,0,0,1,18.0008,35.0005Z" fill="#fdd0b1"/>
      <path d="M32,59.9992H21.0007a4,4,0,0,1-4-4V36a1.99,1.99,0,0,1,.18-.82,2,2,0,0,0-1.18,1.82v19.999a4,4,0,0,0,4,4H31a2,2,0,0,0,1.82-1.18A1.99,1.99,0,0,1,32,59.9992Z" fill="#555b6e"/>
      <path d="M55.999,15.0015H33.978a5.0057,5.0057,0,0,0-5,5V44H25.0005a1,1,0,0,0-1,1,5.0058,5.0058,0,0,0,5,5h9v1a3,3,0,0,0,3,3h1V67.9129l-2.9528,2.11A4.9,4.9,0,0,0,37,73.9986a1,1,0,0,0,1,1H51.9992a1,1,0,0,0,1-1,4.9,4.9,0,0,0-2.0469-3.9759l-2.9528-2.11V54h1a3,3,0,0,0,3-3V50h8.9995a5.0058,5.0058,0,0,0,5-5,1,1,0,0,0-1-1h-4V20.0012A5.0057,5.0057,0,0,0,55.999,15.0015Zm0,2a3,3,0,0,1,3,3V44h-8V42a3,3,0,0,0-3-3h-2V17.0014ZM43.9776,44H41V42a1,1,0,0,1,1-1h1.978Zm2.0218-3h2a1,1,0,0,1,1,1v2h-3Zm-15.02-20.999a3,3,0,0,1,3-3h10V39H42a3,3,0,0,0-3,3v2H30.9792ZM49.9993,51a1,1,0,0,1-1,1h-2a1,1,0,0,0-1,1V68.4278a1,1,0,0,0,.419.813L49.79,71.65a2.8916,2.8916,0,0,1,1.0289,1.3489H39.18A2.8916,2.8916,0,0,1,40.2087,71.65l3.3719-2.4089A1,1,0,0,0,44,68.4278V53a1,1,0,0,0-1-1H41a1,1,0,0,1-1-1V50h10Zm10.9994-3H29a3.0058,3.0058,0,0,1-2.8289-2H63.8276A3.0058,3.0058,0,0,1,60.9987,48Z" fill="#010101"/>
      <path d="M55.999,28.0008a1,1,0,0,0,1-1v-7a1,1,0,0,0-2,0v7A1,1,0,0,0,55.999,28.0008Z" fill="#010101"/>
      <circle cx="55.999" cy="31.0007" r="1" fill="#010101"/>
      <path d="M71.9982,34.0005a3,3,0,0,0-3,3v18.999H58.9988a3,3,0,0,0,0,6h.743L57.0239,73.7736a1,1,0,0,0,.7487,1.2l.0013,0a1.0379,1.0379,0,0,0,.225.025,1,1,0,0,0,.9739-.775l2.8259-12.2244h8.2c.068,0,.1319-.0169.2-.02l2.8249,12.2444a1,1,0,0,0,.975.775,1.0337,1.0337,0,0,0,.2259-.025,1,1,0,0,0,.75-1.1987l0-.0012L72.14,61.4992a4.9927,4.9927,0,0,0,2.8579-4.5V37A3,3,0,0,0,71.9982,34.0005Zm1,22.9989a3,3,0,0,1-3,3H58.9988a1,1,0,0,1,0-2H69.9983a1,1,0,0,0,1-1V37a1,1,0,1,1,2,0Zm-55.1392,4.5L15.026,73.7736a1,1,0,0,0,.7487,1.2l.0013,0a1.0376,1.0376,0,0,0,.2249.025,1,1,0,0,0,.974-.775l2.8259-12.2444c.068,0,.1319.02.2.02h8.2l2.8209,12.2244a1,1,0,0,0,.9789.775,1.0339,1.0339,0,0,0,.226-.025,1,1,0,0,0,.75-1.1987l0-.0012L30.2572,61.9991H31a3,3,0,0,0,0-6h-10V37a3,3,0,1,0-6,0v19.999A4.9927,4.9927,0,0,0,17.8589,61.4992ZM17.0009,37a1,1,0,1,1,2,0v19.999a1,1,0,0,0,1,1H31a1,1,0,0,1,0,2h-11a3,3,0,0,1-3-3Z" fill="#010101"/>
    </g>
  </g>
</svg>
