<svg xmlns="http://www.w3.org/2000/svg" xmlns:xlink="http://www.w3.org/1999/xlink" width="100" height="100" viewBox="0 0 100 100">
  <defs>
    <clipPath id="a">
      <circle cx="50" cy="50" r="50" fill="none"/>
    </clipPath>
  </defs>
  <g>
    <circle cx="50" cy="50" r="50" fill="#d7ebcd"/>
    <g clip-path="url(#a)">
      <g>
        <g>
          <path d="M93.3946,100H6.6054s1.1651-5.5206,2.826-11.0665,5.0919-7.8671,9.5341-9.0068c4.4406-1.1412,21.9568-6.5945,21.9568-6.5945l9.0262-.7214.0523-.003.0507.003,8.1435.6512s18.3974,5.5235,22.8381,6.6647,7.8731,3.4608,9.534,9.0068S93.3946,100,93.3946,100Z" fill="#e9376f"/>
          <path d="M75.26,95.9178H64.67a.4476.4476,0,0,0-.4481.4481V100h.8962V96.814h9.6938V100h.8962V96.3659A.4475.4475,0,0,0,75.26,95.9178Z" fill="#c4215d"/>
          <circle cx="49.4758" cy="85.512" r="1.0232" fill="#f5eef6"/>
          <circle cx="49.4758" cy="90.939" r="1.0232" fill="#f5eef6"/>
          <circle cx="49.4758" cy="96.3659" r="1.0232" fill="#f5eef6"/>
          <polygon points="50.051 72.603 50.051 72.611 50.001 72.608 50.051 72.603" fill="#5e53a3"/>
          <polygon points="50.001 72.608 49.949 72.611 49.949 72.603 50.001 72.608" fill="#5e53a3"/>
        </g>
        <g>
          <g>
            <path d="M58.05,75.4758S55.8039,79.68,49.5235,79.68a10.0588,10.0588,0,0,1-8.6224-4.4132l.3712-3.024.0625-.5086.5831-4.7617,15.0115.4188.2506,1.8111.0826.5931Z" fill="#f58882"/>
            <path d="M41.3348,71.7341a21.3857,21.3857,0,0,0-9.3014,4.3379s1.1562,6.76,8.8677,13.4487L49.5235,79.68A15.8278,15.8278,0,0,1,41.3348,71.7341Z" fill="#c4215d"/>
            <path d="M57.4941,71.7341a21.3855,21.3855,0,0,1,9.3013,4.3379s-1.1561,6.76-8.8676,13.4487L49.3054,79.68A15.8274,15.8274,0,0,0,57.4941,71.7341Z" fill="#c4215d"/>
            <path d="M57.18,69.2023c-3.4009,2.8827-8.9026,3.98-15.9077,3.04l.0625-.5086.5831-4.7617,15.0115.4188Z" fill="#18274b"/>
          </g>
          <g>
            <path d="M36.28,54.5793c-3.3576,4.6874-10.5892,1.52-10.0963-4.7014.4471-5.6438,6.75-4.7489,6.75-4.7489Z" fill="#f15c5e"/>
            <path d="M33.1892,54.6987a.4483.4483,0,0,1-.4348-.3414c-.6549-2.67-3.4278-5.1636-3.4558-5.1885a.4481.4481,0,0,1,.5956-.67c.1225.109,3.0085,2.7008,3.7306,5.6446a.4485.4485,0,0,1-.4356.555Z" fill="#d1393f"/>
            <path d="M32.0335,52.1619a.4473.4473,0,0,1-.1423-.0233,5.073,5.073,0,0,0-2.4121-.1589.4481.4481,0,0,1-.1952-.8747,5.9022,5.9022,0,0,1,2.8917.1838.4481.4481,0,0,1-.1421.8731Z" fill="#d1393f"/>
          </g>
          <g>
            <path d="M61.1442,54.5793c3.3577,4.6874,10.5893,1.52,10.0964-4.7014-.447-5.6438-6.75-4.7489-6.75-4.7489Z" fill="#f15c5e"/>
            <path d="M64.2354,54.6987a.4485.4485,0,0,1-.4356-.5549c.7221-2.9439,3.6081-5.5357,3.7307-5.6447a.4481.4481,0,0,1,.5955.67c-.028.0249-2.8009,2.5183-3.4557,5.1884A.4484.4484,0,0,1,64.2354,54.6987Z" fill="#d1393f"/>
            <path d="M65.3912,52.1619a.4481.4481,0,0,1-.1422-.8731,5.9068,5.9068,0,0,1,2.8918-.1838.4481.4481,0,0,1-.1954.8747,5.0764,5.0764,0,0,0-2.412.1589A.4467.4467,0,0,1,65.3912,52.1619Z" fill="#d1393f"/>
          </g>
          <path d="M31.5968,38.2763A40.5485,40.5485,0,0,0,34.2075,58.393c3.8525,9.0152,8.9776,11.8248,14.4308,11.91,6.2024.0974,19.19-3.49,17.1343-32.9187C64.3838,17.5,33.2387,18.2017,31.5968,38.2763Z" fill="#f58882"/>
          <g opacity="0.5">
            <ellipse cx="38.8721" cy="54.5178" rx="4.3099" ry="1.9867" fill="#f15c5e"/>
          </g>
          <g opacity="0.5">
            <ellipse cx="60.3593" cy="54.5178" rx="4.3099" ry="1.9867" fill="#f15c5e"/>
          </g>
          <path d="M66.5072,45.58a68.03,68.03,0,0,1-1.8878,16.5832c-3.5,14.7776-15.51,12.8087-15.51,12.8087S37.3333,76.9408,33.8329,62.1632c-2.1828-9.219-3.1252-16.0978-3.1252-16.0978l2.7588-3.6533S34.81,55.1439,39.6839,57.35c0,0,2.1658-3.2941,9.4253-.2155,7.2594-3.0786,9.6592.2155,9.6592.2155,4.8735-2.2058,5.2865-14.4583,5.2865-14.4583Z" fill="#18274b"/>
          <path d="M35.27,32.111s1.16,7.6332-2.0807,10.4241v6.299l-1.9038.5707s-1.6591-8.4193-2.2943-13.1069c-1.23-9.0792,7.2888-10.23,7.2888-10.23Z" fill="#18274b"/>
          <path d="M61.9741,32.111s-1.16,7.6332,2.0808,10.4241v6.299l1.9038.5707s1.659-8.4193,2.2943-13.1069c1.23-9.0792-7.2889-10.23-7.2889-10.23Z" fill="#18274b"/>
          <path d="M30.1864,31.6233s-5.7019-10.0707,7.8059-13.757c9.4192-2.57,22.167.1366,26.2427-6.5534,0,0,1.14,4.5737-1.1125,7.5092,0,0,6.1439-1.8432,7.8506-5.4613,0,0,2.1162,5.666-1.16,10.035a5.48,5.48,0,0,0,4.7785-.9557s-.208,12.3552-9.3555,11.6726a18.3226,18.3226,0,0,0-5.2782-2.4894c-3.3449-1.0239-6.0593,4.1286-14.7658,1.944C37.4319,31.62,34.2356,30.39,30.1864,31.6233Z" fill="#18274b"/>
          <path d="M49.4083,65.3548a6.2141,6.2141,0,0,1-2.3538-.4766.3734.3734,0,0,1,.3077-.6805,4.7922,4.7922,0,0,0,4.1755-.1948.3734.3734,0,0,1,.4106.6239A4.5559,4.5559,0,0,1,49.4083,65.3548Z" fill="#33486e"/>
          <path d="M50.7311,55.5064l-.03-.0013-2.7306-.22a.3734.3734,0,1,1,.06-.7444l2.2834.1839-.7125-6.9414a.3734.3734,0,1,1,.7429-.0763l.7583,7.3877a.3734.3734,0,0,1-.3715.4116Z" fill="#f15c5e"/>
          <path d="M43.5492,58.8949a30.4106,30.4106,0,0,0,11.3539-.1593,5.5025,5.5025,0,0,1-5.8281,4.9111C44.4554,63.6652,43.5492,58.8949,43.5492,58.8949Z" fill="#f5eef6"/>
          <path d="M43.28,47.7452c0,1.2951-.5886,2.3448-1.3146,2.3448s-1.3144-1.05-1.3144-2.3448.5885-2.3447,1.3144-2.3447S43.28,46.45,43.28,47.7452Z" fill="#18274b"/>
          <path d="M57.2626,47.7452c0,1.2951-.5885,2.3448-1.3145,2.3448s-1.3145-1.05-1.3145-2.3448.5885-2.3447,1.3145-2.3447S57.2626,46.45,57.2626,47.7452Z" fill="#18274b"/>
          <path d="M39.6326,42.61a11.6119,11.6119,0,0,1,3.5809-1.3,1.1187,1.1187,0,0,0,.9066-1.48l-.0485-.1354a1.1131,1.1131,0,0,0-1.1648-.7331,7.8564,7.8564,0,0,0-4.5923,1.88,1.11,1.11,0,0,0-.27,1.1194h0A1.1136,1.1136,0,0,0,39.6326,42.61Z" fill="#18274b"/>
          <path d="M58.3171,42.61a11.6119,11.6119,0,0,0-3.5809-1.3,1.1187,1.1187,0,0,1-.9065-1.48l.0484-.1354a1.1132,1.1132,0,0,1,1.1649-.7331,7.8564,7.8564,0,0,1,4.5922,1.88,1.11,1.11,0,0,1,.27,1.1194h0A1.1137,1.1137,0,0,1,58.3171,42.61Z" fill="#18274b"/>
        </g>
      </g>
    </g>
  </g>
</svg>
