<svg xmlns="http://www.w3.org/2000/svg" xmlns:xlink="http://www.w3.org/1999/xlink" width="100" height="100" viewBox="0 0 100 100">
  <defs>
    <clipPath id="a" transform="translate(0 0)">
      <circle cx="50" cy="50" r="50" fill="none"/>
    </clipPath>
  </defs>
  <g>
    <circle cx="50" cy="50" r="50" fill="#e0d1e7"/>
    <g clip-path="url(#a)">
      <g>
        <g>
          <path d="M43.2016,63.8388s-7.3653,4.6433-3.3624,11.6883,31.7026,5.1237,17.4524-11.6883C45.52,49.9512,43.2016,63.8388,43.2016,63.8388Z" transform="translate(0 0)" fill="#874039"/>
          <g>
            <path d="M70.158,45.9059s-3.2022,3.8428-2.5618,7.6855c.9217,5.53-7.5254,12.8092-16.1716,10.4075s.6405-18.5733.6405-18.5733Z" transform="translate(0 0)" fill="#874039"/>
            <path d="M29.7519,45.9059s3.2023,3.8428,2.5619,7.6855c-.9217,5.53,7.5254,12.8092,16.1716,10.4075s-.64-18.5733-.64-18.5733Z" transform="translate(0 0)" fill="#874039"/>
            <path d="M51.7264,58.0013a24.3878,24.3878,0,0,0,11.5284-2.4878,12.3171,12.3171,0,0,0,4.3134-3.8,12.748,12.748,0,0,1,2.59-5.808l-18.0929-.48S48.1277,52.2864,47.77,57.7344A38.6823,38.6823,0,0,0,51.7264,58.0013Z" transform="translate(0 0)" fill="#aa5450"/>
            <path d="M32.3853,52.9207a43.4214,43.4214,0,0,0,19.3411,5.0806c.1425.0018.2847-.0047.4271-.0048-.2437-5.4873-4.3086-12.5709-4.3086-12.5709l-18.0929.48S32.5893,49.3141,32.3853,52.9207Z" transform="translate(0 0)" fill="#aa5450"/>
          </g>
        </g>
        <g>
          <g>
            <path d="M59.6315,71.8505c-4.0743-2.2223-2.9632-12.965-2.9632-12.965l-6.1018.3932v-.3918l-.6529.1959-.653-.1959v.3918l-6.1018-.3932s1.1111,10.7427-2.9631,12.965S11.0848,75.184,13.6775,100H86.15C88.7423,75.184,63.7057,74.0728,59.6315,71.8505Z" transform="translate(0 0)" fill="#f8a79f"/>
            <path d="M42.3033,69.0793q7.311-1.09,14.6118-2.2485a32.5643,32.5643,0,0,1-.2468-7.9453l-6.1018.3932v-.3918l-.653.1959-.6529-.1959v.3918l-6.1019-.3932S43.8021,65.1272,42.3033,69.0793Z" transform="translate(0 0)" fill="#e18980"/>
          </g>
          <g>
            <path d="M67.918,73.7618A25.88,25.88,0,0,1,53.08,79.8111L49.8434,91.4623,48.131,79.9034c-6.5106-.3767-12.2448-2.6946-16.0489-6.1416C23.6213,76.4729,11.2622,82.35,13.1062,100H86.8939C88.7379,82.35,76.3788,76.4729,67.918,73.7618Z" transform="translate(0 0)" fill="#448786"/>
            <g>
              <path d="M48.57,82.8671l-.4391-2.9637c-6.5106-.3767-12.2448-2.6946-16.0489-6.1416a43.0071,43.0071,0,0,0-4.4881,1.7018C30.5947,79.5417,38.7616,82.5431,48.57,82.8671Z" transform="translate(0 0)" fill="#5caaa7"/>
              <path d="M72.9037,75.6888a41.9188,41.9188,0,0,0-4.9857-1.927A25.88,25.88,0,0,1,53.08,79.8111l-.8476,3.0513C61.7992,82.5215,69.7871,79.6335,72.9037,75.6888Z" transform="translate(0 0)" fill="#5caaa7"/>
            </g>
            <path d="M49.11,94.2761a1.3456,1.3456,0,1,0,1.3456-1.3456A1.3455,1.3455,0,0,0,49.11,94.2761Z" transform="translate(0 0)" fill="#5caaa7"/>
          </g>
        </g>
        <g>
          <g>
            <g>
              <path d="M37.9834,43.161c-1.2005-3.7243-4.0431-2.862-4.3093-2.7722-.279.0326-3.2173.4689-2.71,4.3488.5106,3.9031,2.7753,6.0183,4.8988,5.397C38.0485,49.7881,39.191,46.9075,37.9834,43.161Z" transform="translate(0 0)" fill="#e18980"/>
              <path d="M61.9534,43.161c1.2-3.7243,4.0431-2.862,4.3092-2.7722.2791.0326,3.2174.4689,2.71,4.3488-.5106,3.9031-2.7752,6.0183-4.8988,5.397C61.8882,49.7881,60.7458,46.9075,61.9534,43.161Z" transform="translate(0 0)" fill="#e18980"/>
              <path d="M35.0711,37.5191c1.4876-16.3271,13.9-15.4126,15.0706-15.29,1.1706-.123,13.5831-1.0375,15.0707,15.29C66.7089,53.9436,59.3932,64.67,50.1417,64.08,40.89,64.67,33.5745,53.9436,35.0711,37.5191Z" transform="translate(0 0)" fill="#f8a79f"/>
            </g>
            <g>
              <path d="M34.5554,40.6221s-.8006,21.4554,11.8484,23.8571,20.4947-8.1658,19.3739-24.9779l-1.6012-.16s-1.0407,16.9721-4.8834,17.1322,1.8413-5.2838-5.524-5.604-11.01-2.7754-11.6083,3.4424c-.4,4.163-5.5239-2.9621-6.1644-14.01S34.5554,40.6221,34.5554,40.6221Z" transform="translate(0 0)" fill="#aa5450"/>
              <path d="M36.6034,45.2324a38.2483,38.2483,0,0,1-.607-4.93c-.6405-11.0479-1.441.32-1.441.32a43.4424,43.4424,0,0,0,.249,5.5375C35.4059,45.8542,36.0045,45.5431,36.6034,45.2324Z" transform="translate(0 0)" fill="#874039"/>
              <path d="M65.7923,45.3745a44.2433,44.2433,0,0,0-.0146-5.8732l-1.6012-.16s-.143,2.3247-.5171,5.26Q64.7283,44.9812,65.7923,45.3745Z" transform="translate(0 0)" fill="#874039"/>
            </g>
          </g>
          <g>
            <path d="M52.282,39.4335a18.895,18.895,0,0,1,1.2837,4.491,26.828,26.828,0,0,1,.39,4.59l-.0029.4673-.2819.1538c-.5061.2764-1.027.531-1.5571.7722a14.2273,14.2273,0,0,1-1.6572.626,14.2175,14.2175,0,0,1,1.1814-1.32c.4161-.4074.8414-.8015,1.2815-1.174l-.2846.6208a26.8149,26.8149,0,0,1-.6234-4.5637A18.9042,18.9042,0,0,1,52.282,39.4335Z" transform="translate(0 0)" fill="#e18980"/>
            <path d="M61.8473,38.2233c-.9095-.1951-1.6248-.39-2.275-.5457a11.2186,11.2186,0,0,0-1.6913-.2954,5.5055,5.5055,0,0,0-1.5775.05c-.3158.0083-.6239.1377-1.0055.189-.3775.0762-.74.2166-1.2356.2778a3.4642,3.4642,0,0,1,1.268-2.3545,3.73,3.73,0,0,1,2.789-.8518,4.2437,4.2437,0,0,1,2.5478,1.1736A3.7605,3.7605,0,0,1,61.8473,38.2233Z" transform="translate(0 0)" fill="#362836"/>
            <path d="M46.3855,38.2233c-.91-.1951-1.6247-.39-2.2749-.5457a11.2217,11.2217,0,0,0-1.6912-.2954,5.5061,5.5061,0,0,0-1.5776.05c-.3158.0083-.624.1377-1.0056.189-.3774.0762-.74.2166-1.2356.2778a3.465,3.465,0,0,1,1.268-2.3545,3.7308,3.7308,0,0,1,2.789-.8518,4.2434,4.2434,0,0,1,2.5479,1.1736A3.7609,3.7609,0,0,1,46.3855,38.2233Z" transform="translate(0 0)" fill="#362836"/>
            <path d="M45.8951,44.14A6.0024,6.0024,0,0,0,44.79,42.4311a2.02,2.02,0,0,0-1.4941-.6106,1.7673,1.7673,0,0,0-1.4621.5261,4.584,4.584,0,0,0-.8685,1.7932,2.7556,2.7556,0,0,1,.0984-2.3186,2.2693,2.2693,0,0,1,.97-.9382,3.0687,3.0687,0,0,1,1.29-.2564,2.5861,2.5861,0,0,1,2.2043,1.24A3.0907,3.0907,0,0,1,45.8951,44.14Z" transform="translate(0 0)" fill="#362836"/>
            <path d="M59.79,43.9157a6.0088,6.0088,0,0,0-1.1056-1.7088,2.0211,2.0211,0,0,0-1.494-.6106,1.7678,1.7678,0,0,0-1.4622.5262,4.5847,4.5847,0,0,0-.8685,1.7932,2.7553,2.7553,0,0,1,.0984-2.3186,2.27,2.27,0,0,1,.97-.9383,3.07,3.07,0,0,1,1.29-.2563,2.5857,2.5857,0,0,1,2.2043,1.24A3.09,3.09,0,0,1,59.79,43.9157Z" transform="translate(0 0)" fill="#362836"/>
            <path d="M56.47,53.4667c-2.9552,2.8727-7.9607,2.7133-11.7521.1534" transform="translate(0 0)" fill="#fff"/>
          </g>
          <g>
            <path d="M50.3634,24.6107S41.397,23.01,39.956,28.6135s.64,13.13-5.9242,12.0086c0,0-4.76.9607-1.718,8.4861,0,0-9.01-8.6462-3.7259-14.8906,4.31-5.0942,2.5618-16.1716,13.1294-17.9328S50.3634,22.5292,50.3634,24.6107Z" transform="translate(0 0)" fill="#874039"/>
            <path d="M50.3634,24.6107S41.397,23.01,39.956,28.6135s.64,13.13-5.9242,12.0086c0,0-4.76.9607-1.718,8.4861,0,0-9.01-8.6462-3.7259-14.8906,4.31-5.0942,2.5618-16.1716,13.1294-17.9328S50.3634,22.5292,50.3634,24.6107Z" transform="translate(0 0)" fill="#aa5450"/>
            <path d="M49.5466,24.6107S58.513,23.01,59.954,28.6135s-.6405,13.13,5.9243,12.0086c0,0,4.76.9607,1.7179,8.4861,0,0,9.01-8.6462,3.7259-14.8906-4.31-5.0942-2.5618-16.1716-13.1293-17.9328S49.5466,22.5292,49.5466,24.6107Z" transform="translate(0 0)" fill="#aa5450"/>
            <path d="M49.37,22.5817a19.0294,19.0294,0,0,1,3.7748.2915,13.7977,13.7977,0,0,1,3.68,1.1589,7.4113,7.4113,0,0,1,3.15,2.6961,6.058,6.058,0,0,1,.7818,2.021,12.6926,12.6926,0,0,1,.19,1.9128c.112,2.4629-.2894,4.8079-.2093,7.0244a4.4456,4.4456,0,0,0,.8753,2.847,3.865,3.865,0,0,0,2.9021.9038l.0534-.0008.0045.001a4.7571,4.7571,0,0,1,1.069.3318,3.8306,3.8306,0,0,1,.9426.5767,2.4558,2.4558,0,0,1,.6531.882,2.3086,2.3086,0,0,1,.1369,1.0511,2.214,2.214,0,0,0-.307-.9654,2.1823,2.1823,0,0,0-.6941-.6821,4.0142,4.0142,0,0,0-1.8609-.5149l.0575,0a7.1064,7.1064,0,0,1-1.8658.031,3.6888,3.6888,0,0,1-1.8564-.7725,3.9111,3.9111,0,0,1-1.1742-1.6782,8.6472,8.6472,0,0,1-.4586-1.8628c-.3179-2.4566-.1875-4.8049-.4269-7.0178a10.7509,10.7509,0,0,0-.2635-1.5669,3.6958,3.6958,0,0,0-.5634-1.2012A5.3915,5.3915,0,0,0,55.7294,26.37a16.3273,16.3273,0,0,0-6.2552-1.07Z" transform="translate(0 0)" fill="#aa5450"/>
          </g>
        </g>
      </g>
    </g>
  </g>
</svg>
